# Blender v2.90.1 OBJ File: ''
# www.blender.org
mtllib rockSmall.mtl
o rockSmall
v -0.290992 0.205628 -0.350604
v -0.268189 0.205628 -0.133725
v -0.197721 0.205628 -0.350604
v -0.294898 0.205628 -0.043809
v -0.185509 0.205627 0.047542
v -0.157087 0.205628 -0.053004
v -0.338154 0.205628 -0.183765
v -0.090629 0.452625 -0.034705
v -0.132690 0.452625 0.114088
v -0.261010 -0.000000 0.103675
v -0.294437 -0.000000 0.221925
v -0.237143 0.183151 0.207139
v 0.057454 1.020000 0.004005
v 0.057454 0.452625 0.072884
v -0.164237 1.020000 -0.157063
v 0.256626 0.452625 -0.071823
v 0.470926 -0.000000 0.221925
v 0.378410 0.000000 -0.105356
v 0.329334 0.452625 0.185385
v 0.088245 0.452625 0.386720
v -0.032300 0.452625 0.286053
v 0.088245 -0.000000 0.541504
v 0.274935 0.000000 -0.541504
v 0.409345 0.000000 -0.127832
v -0.160026 0.000000 -0.541504
v -0.183328 0.000000 -0.469788
v -0.358374 0.000000 -0.469788
v -0.470926 0.000000 -0.071628
v -0.438010 0.062081 -0.080122
v 0.363400 0.359936 -0.138147
v 0.123264 1.020000 -0.043809
v 0.194467 1.020000 -0.417677
v 0.259505 1.020000 -0.217510
v 0.023867 1.020000 -0.417677
v -0.111519 1.020000 -0.319313
v -0.132690 0.346507 -0.499439
vt 0.398225 0.176017
vt 0.396287 0.165325
vt 0.402632 0.176191
vt 0.393267 0.161513
vt 0.395283 0.154227
vt 0.398479 0.158402
vt 0.393336 0.168786
vt 0.407541 0.156341
vt 0.405180 0.150700
vt 0.383285 0.152109
vt 0.382366 0.144679
vt 0.393744 0.146169
vt 0.418046 0.161395
vt 0.413611 0.149904
vt 0.417505 0.161148
vt 0.427417 0.150876
vt 0.434841 0.120904
vt 0.445638 0.139623
vt 0.421375 0.138665
vt 0.409350 0.138491
vt 0.407304 0.143272
vt 0.401134 0.115825
vt 0.380090 0.167519
vt 0.392505 0.185765
vt 0.383917 0.166683
vt 0.433174 0.150519
vt 0.447373 0.140954
vt 0.418176 0.161751
vt 0.401125 0.186863
vt 0.417072 0.162462
vt 0.447373 0.180610
vt 0.417706 0.162253
vt 0.417023 0.161905
vt 0.417053 0.161370
vt 0.412873 0.171764
vt 0.405853 0.188863
vn 0.0000 1.0000 0.0000
vn -0.9269 0.2688 -0.2620
vn -0.5850 0.0977 0.8051
vn 0.9269 0.2688 -0.2620
vn -0.6200 0.2539 0.7424
vn 0.6200 0.2539 0.7424
vn -0.8699 0.4276 -0.2459
vn 0.6059 0.1078 0.7882
vn 0.5850 0.0977 0.8051
vn 0.6652 0.1371 0.7340
vn 0.0000 0.5015 -0.8652
vn 0.9451 0.1118 -0.3071
vn 0.0000 0.1205 -0.9927
vn -0.9451 0.1118 -0.3071
vn -0.5722 0.2286 -0.7876
vn -0.7697 0.4535 0.4493
vn -0.7180 0.6597 0.2219
vn -0.5856 0.4065 0.7013
vn 0.7719 0.1943 0.6054
usemtl Material.001
s 1
f 1/1/1 2/2/1 3/3/1
f 4/4/1 2/2/1 1/1/1
f 5/5/1 2/2/1 4/4/1
f 2/2/1 5/5/1 6/6/1
f 4/4/1 1/1/1 7/7/1
f 5/5/2 8/8/2 6/6/2
f 8/8/2 5/5/2 9/9/2
f 9/9/2 5/5/2 10/10/2
f 9/9/2 10/10/2 11/11/2
f 9/9/2 11/11/2 12/12/2
f 13/13/3 8/8/3 14/14/3
f 15/15/3 8/8/3 13/13/3
f 15/15/3 6/6/3 8/8/3
f 6/6/3 15/15/3 2/2/3
f 16/16/4 17/17/4 18/18/4
f 17/17/4 16/16/4 19/19/4
f 16/16/1 20/20/1 19/19/1
f 20/20/1 16/16/1 14/14/1
f 20/20/1 14/14/1 21/21/1
f 21/21/1 14/14/1 8/8/1
f 21/21/1 8/8/1 9/9/1
f 20/20/5 11/11/5 22/22/5
f 11/11/5 20/20/5 12/12/5
f 12/12/5 20/20/5 21/21/5
f 19/19/6 22/22/6 17/17/6
f 22/22/6 19/19/6 20/20/6
f 28/23/7 1/1/7 27/24/7
f 1/1/7 28/23/7 7/7/7
f 7/7/7 28/23/7 29/25/7
f 30/26/8 18/18/9 24/27/9
f 18/18/9 30/26/8 16/16/9
f 16/16/9 30/26/8 31/28/10
f 16/16/9 31/28/10 14/14/9
f 14/14/9 31/28/10 13/13/9
f 1/1/11 26/29/11 27/24/11
f 26/29/11 1/1/11 3/3/11
f 32/30/12 24/27/12 23/31/12
f 24/27/12 32/30/12 33/32/12
f 24/27/12 33/32/12 30/26/12
f 32/30/1 31/28/1 33/32/1
f 31/28/1 32/30/1 34/33/1
f 31/28/1 34/33/1 13/13/1
f 13/13/1 34/33/1 15/15/1
f 15/15/1 34/33/1 35/34/1
f 36/35/13 23/31/13 25/36/13
f 23/31/13 36/35/13 32/30/13
f 32/30/13 36/35/13 34/33/13
f 26/29/14 36/35/14 25/36/14
f 36/35/14 26/29/14 35/34/14
f 35/34/14 26/29/14 3/3/14
f 35/34/14 3/3/14 2/2/14
f 35/34/14 2/2/14 15/15/14
f 34/33/15 36/35/15 35/34/15
f 21/21/16 9/9/16 12/12/16
f 4/4/17 7/7/17 29/25/17
f 5/5/18 28/23/18 10/10/18
f 28/23/18 5/5/18 29/25/18
f 29/25/18 5/5/18 4/4/18
f 31/28/10 30/26/8 33/32/19
