# Blender v2.90.1 OBJ File: ''
# www.blender.org
mtllib rock_largeF.mtl
o rock_largeF
v -0.084016 -0.000000 0.357504
v -0.547729 0.211068 0.056896
v -0.438184 -0.000000 0.043428
v -0.105020 0.211068 0.449491
v 0.405021 0.211068 -0.379800
v 0.259159 0.000000 -0.378393
v 0.301783 0.138856 -0.438909
v 0.547729 0.211068 -0.220356
v 0.370771 0.000000 -0.253692
v 0.492956 0.105534 -0.199365
v 0.379197 0.211068 0.044460
v 0.370771 0.000000 -0.072447
v 0.303358 -0.000000 0.033479
v -0.384246 0.105534 -0.279844
v 0.051752 0.000000 -0.312946
v -0.144900 0.000000 -0.281428
v 0.064690 0.211068 -0.388571
v -0.426939 0.211068 -0.309777
v 0.039862 0.478962 -0.243446
v 0.257750 0.211068 -0.449491
v 0.301783 0.258829 -0.438909
v 0.199617 0.478962 -0.293857
v -0.389868 0.000000 -0.103242
v -0.345010 0.345015 -0.252335
v -0.300296 0.478962 -0.081921
v -0.337511 0.478962 0.031051
v -0.111609 0.478962 -0.219170
v 0.273012 0.478962 -0.211854
v 0.285586 0.478962 -0.058202
v 0.442620 0.345015 -0.180074
v 0.221759 -0.000000 0.252576
v 0.277198 0.211068 0.318331
v 0.170810 0.478962 0.192147
v 0.233661 0.478962 0.023388
v -0.064713 0.478962 0.272968
vt 0.397822 0.133682
vt 0.363378 0.167759
vt 0.373022 0.166961
vt 0.394379 0.126160
vt 0.452955 0.188251
vt 0.440409 0.190733
vt 0.445147 0.195167
vt 0.462362 0.172019
vt 0.447765 0.178037
vt 0.457285 0.171194
vt 0.443170 0.152292
vt 0.444532 0.162478
vt 0.436856 0.154588
vt 0.383419 0.193750
vt 0.421437 0.188814
vt 0.403993 0.189616
vt 0.423896 0.195075
vt 0.380288 0.197081
vt 0.419176 0.183060
vt 0.441556 0.196861
vt 0.445147 0.195167
vt 0.433789 0.184538
vt 0.379786 0.178690
vt 0.386296 0.190688
vt 0.387095 0.175262
vt 0.381885 0.166228
vt 0.405740 0.183678
vt 0.438627 0.176189
vt 0.436966 0.162775
vt 0.452620 0.170436
vt 0.425943 0.137235
vt 0.429529 0.130601
vt 0.422647 0.143331
vt 0.431053 0.156697
vt 0.400987 0.140595
vn -0.6177 -0.3650 0.6966
vn -0.6590 -0.1167 0.7431
vn -0.5753 0.4983 0.6487
vn 0.7091 0.3070 -0.6347
vn 0.6613 -0.4609 -0.5918
vn 0.7126 -0.2924 -0.6377
vn 0.6613 -0.4609 -0.5919
vn 0.8436 -0.0122 0.5369
vn 0.8009 -0.3143 0.5097
vn 0.7639 0.4243 0.4862
vn -0.1496 -0.3254 -0.9337
vn -0.1581 -0.0390 -0.9866
vn -0.1419 0.4426 -0.8854
vn -0.2704 0.4391 -0.8568
vn -0.2690 0.4483 -0.8525
vn -0.2867 -0.3041 -0.9085
vn -0.3549 -0.7975 -0.4879
vn -0.9210 0.2442 -0.3034
vn -0.7726 0.5817 -0.2545
vn -0.7777 0.5741 -0.2562
vn -0.3719 0.7747 -0.5113
vn -0.2863 -0.3076 -0.9074
vn 0.6248 0.7791 -0.0511
vn 0.8576 -0.4030 0.3194
vn 0.8832 -0.3344 0.3289
vn 0.8310 0.4622 0.3095
vn 0.8258 0.4728 0.3075
vn -0.5707 0.5100 0.6436
vn 0.2814 0.4981 0.8202
vn 0.2830 0.4896 0.8247
vn 0.3027 -0.3609 0.8821
vn 0.4199 -0.1905 -0.8873
vn 0.4218 -0.1656 -0.8914
vn 0.4211 -0.1750 -0.8900
vn 0.5860 0.6176 -0.5245
vn -0.1404 0.4615 -0.8760
vn 0.4243 0.1273 -0.8965
vn 0.6537 -0.7568 -0.0000
vn -0.8586 -0.4276 -0.2828
vn 0.7544 0.4476 0.4801
vn 0.3034 -0.3552 0.8842
vn 0.0000 -1.0000 -0.0000
vn 0.0000 1.0000 0.0000
usemtl Material
s 1
f 1/1/1 2/2/1 3/3/1
f 2/2/2 1/1/1 4/4/3
f 5/5/4 6/6/5 7/7/5
f 6/6/5 5/5/4 8/8/6
f 6/6/7 8/8/7 9/9/7
f 9/9/7 8/8/7 10/10/5
f 11/11/8 10/10/9 8/8/10
f 10/10/9 11/11/9 12/12/9
f 12/12/9 11/11/9 13/13/9
f 14/14/11 15/15/11 16/16/11
f 15/15/11 14/14/11 17/17/11
f 17/17/12 14/14/11 18/18/13
f 19/19/14 20/20/15 17/17/16
f 20/20/15 19/19/14 21/21/14
f 21/21/14 19/19/14 22/22/14
f 23/23/17 14/14/17 16/16/17
f 2/2/18 24/24/19 18/18/20
f 24/24/19 2/2/19 25/25/19
f 25/25/19 2/2/19 26/26/19
f 24/24/21 25/25/21 27/27/21
f 17/17/16 6/6/22 15/15/22
f 6/6/22 17/17/16 7/7/22
f 7/7/22 17/17/16 20/20/15
f 28/28/23 29/29/23 30/30/23
f 11/11/24 31/31/25 13/13/25
f 31/31/25 11/11/24 32/32/26
f 33/33/27 11/11/27 34/34/27
f 11/11/24 33/33/27 32/32/26
f 35/35/28 2/2/2 4/4/3
f 2/2/2 35/35/28 26/26/28
f 33/33/29 4/4/30 32/32/31
f 4/4/30 33/33/29 35/35/29
f 21/21/32 5/5/33 20/20/34
f 5/5/4 30/30/35 8/8/6
f 30/30/35 5/5/35 28/28/35
f 28/28/35 5/5/35 21/21/35
f 28/28/35 21/21/35 22/22/35
f 24/24/36 17/17/12 18/18/13
f 17/17/12 24/24/36 19/19/36
f 19/19/36 24/24/36 27/27/36
f 5/5/33 7/7/37 20/20/34
f 9/9/38 10/10/38 12/12/38
f 14/14/39 2/2/18 18/18/20
f 2/2/18 14/14/39 23/23/39
f 2/2/18 23/23/39 3/3/39
f 30/30/40 11/11/8 8/8/10
f 11/11/8 30/30/40 29/29/40
f 11/11/8 29/29/40 34/34/40
f 32/32/31 1/1/41 31/31/41
f 1/1/41 32/32/31 4/4/30
f 13/13/42 9/9/42 12/12/42
f 9/9/42 13/13/42 6/6/42
f 6/6/42 13/13/42 31/31/42
f 6/6/42 31/31/42 15/15/42
f 15/15/42 31/31/42 1/1/42
f 15/15/42 1/1/42 16/16/42
f 16/16/42 1/1/42 3/3/42
f 16/16/42 3/3/42 23/23/42
f 28/28/43 34/34/43 29/29/43
f 34/34/43 28/28/43 22/22/43
f 34/34/43 22/22/43 33/33/43
f 33/33/43 22/22/43 19/19/43
f 33/33/43 19/19/43 35/35/43
f 35/35/43 19/19/43 27/27/43
f 35/35/43 27/27/43 26/26/43
f 26/26/43 27/27/43 25/25/43
